PathFileType	4	(X/Y/Z)	9_2_92_p0_0-299_filt_butterworth.trc
DataRate	CameraRate	NumFrames	NumMarkers	Units	OrigDataRate	OrigDataStartFrame	OrigNumFrames
60.0	60.0	7	27	m	60.0	186	299
Frame#	Time	RHip			RKnee			RAnkle			RBigToe			RSmallToe			RHeel			LHip			LKnee			LAnkle			LBigToe			LSmallToe			LHeel			Neck			Head			Nose			RShoulder			RElbow			RWrist			RThumb			RIndex			RPinky			LShoulder			LElbow			LWrist			LThumb			LIndex			LPinky			
		X1	Y1	Z1	X2	Y2	Z2	X3	Y3	Z3	X4	Y4	Z4	X5	Y5	Z5	X6	Y6	Z6	X7	Y7	Z7	X8	Y8	Z8	X9	Y9	Z9	X10	Y10	Z10	X11	Y11	Z11	X12	Y12	Z12	X13	Y13	Z13	X14	Y14	Z14	X15	Y15	Z15	X16	Y16	Z16	X17	Y17	Z17	X18	Y18	Z18	X19	Y19	Z19	X20	Y20	Z20	X21	Y21	Z21	X22	Y22	Z22	X23	Y23	Z23	X24	Y24	Z24	X25	Y25	Z25	X26	Y26	Z26	X27	Y27	Z27	
186	3.1	0.3002971116653657	0.4993947045218332	0.9914179347928883	0.3122593690424951	0.5381761776752663	1.4457246657999423	0.31436760920932655	0.6329380047727464	1.8560763000525164	0.28484315905969204	0.45165837620062266	1.8942635222285518	0.3510839127695442	0.5132546259155631	1.9137358315624522	0.2817505452097058	0.7134241786322636	1.9386890616375614	0.0918672117347789	0.49633856555239225	0.9950317708449852	0.09571108774880233	0.5312155819829459	1.4502818498964507	0.10341268426126299	0.6046613250114546	1.8658006427087936	0.12818476569250561	0.46475993507966074	1.9205428608010906	0.060493686578472254	0.47648437275793937	1.8935019737272776	0.12133965093810507	0.6745596032504124	1.9250682846505178	0.18236705593810387	0.46588258767061624	0.4779054225278427	0.2032541218155517	0.4073468838250331	0.25055357001865797	0.20703078022203616	0.35110671839169283	0.3666181860024632	0.31522060464636625	0.46351776412777634	0.5236434565194097	0.5000534061128836	0.295188521594245	0.5917555450318163	0.4079415467145136	0.26532948907642384	0.41412657404759073	0.34006466958678666	0.2718229076356404	0.33445135286635	0.3478856944933392	0.21897397584585648	0.31961244934876637	0.42679348520797616	0.17715509912831842	0.31899325968641784	0.06346746147369763	0.4518663968520903	0.5271214799872511	-0.1148568124717306	0.3130319237069794	0.6071232438747393	-0.011021033794923564	0.25463969834420996	0.41469786630818545	0.027720336048916414	0.30673525479460023	0.33816249838113677	0.007390374753916351	0.2787963158231008	0.31032238478138396	-0.04352511315971419	0.23103470853295047	0.32668737022088323
187	3.1166666666666667	0.30014779635628136	0.49958482225453354	0.9904959251487724	0.31206132074099097	0.5377321799880659	1.4445152657853217	0.31435928151866327	0.6329456625932257	1.85616336996123	0.2848428619309712	0.451719321169395	1.8940610289844022	0.3511043038791722	0.5132394639629552	1.9138280901352234	0.2817395471535832	0.7134297496408534	1.938708680712383	0.09187902293744779	0.4963578268044304	0.9951527633513018	0.09538010109456066	0.5310555619517559	1.4510545566590636	0.10297442854604623	0.6042944876922033	1.8656020518811334	0.1280640796140528	0.4646574493077321	1.920470880133296	0.060763267862894	0.47777481892967544	1.8941431575658274	0.12090452503472128	0.6729802550297498	1.925599073577287	0.18275853387524083	0.46738446326343575	0.480322981931138	0.20180616121898026	0.4135376293617647	0.2501598182840965	0.20878352872610062	0.3532414071541527	0.36835281297382416	0.3141171191279689	0.4676302944962491	0.5227241223756097	0.4986036752234835	0.2940234141082797	0.5916928551531709	0.404145620503912	0.2667203682583577	0.41825166855494333	0.33060342580731783	0.2843676511881336	0.33833114646366125	0.33973574249866556	0.20976599688274167	0.3223917220491628	0.41952556636738897	0.17042468623603416	0.319470762029254	0.06537220393112364	0.45180035706540544	0.527182355034902	-0.10908178479884609	0.3062375138879406	0.6074815192968378	-0.007794388907666037	0.2553280433633641	0.41455772700216703	0.0368190520388053	0.3050706406182447	0.33837280843632717	0.015489689510898628	0.28640893289663416	0.3142977844894075	-0.036733132576255906	0.2323692595155013	0.32765309252704805
188	3.1333333333333333	0.3000149455031752	0.4996084336719214	0.9901166567630624	0.3117765014490767	0.5370619931090013	1.4427350640074121	0.31424722955042556	0.6330812830053925	1.856692337663875	0.28474060981037247	0.45166719523491217	1.8949504022190322	0.3511536832453065	0.5133019546260321	1.9141112585700029	0.2814542035002974	0.7136917077739765	1.9400765703257954	0.09188715564659948	0.4963477494786074	0.9951635774996599	0.09506166261929731	0.5308403681086624	1.4515096947041117	0.10190196620778898	0.603491244003759	1.8652543981517162	0.1280887516846502	0.46471002932486005	1.920455901537343	0.06143490376672562	0.4812294407098654	1.8959150115133259	0.1199222649345644	0.671026985843113	1.9262743709823757	0.1830358926361489	0.46838905551793325	0.4827962198061707	0.1998095352894943	0.41941398645529765	0.24987270475696677	0.2099445360239577	0.35386500566181867	0.3696105752333164	0.31277774826816923	0.4728352675666165	0.5231266576631572	0.4965631678010468	0.29386124699474353	0.5934512997308353	0.4007148199657985	0.26745220477537235	0.42345194124623686	0.3212155472940114	0.2894038320586679	0.3436392267504477	0.33413283198927796	0.20281890082801485	0.324672386463381	0.4155992867916931	0.16827875275930373	0.3206544421858193	0.066428089611052	0.4528105953244211	0.5272508473501485	-0.10421673724986781	0.3004115512417443	0.6076948475724402	-0.004369103079442289	0.25518695312258455	0.41435851257667033	0.049239828404068826	0.29167108495161737	0.3394459102200922	0.02644808507946354	0.2830899792343584	0.3174748721130693	-0.027447608346303325	0.2307398668069903	0.32777953116834857
189	3.15	0.30003516115520645	0.49961010418611895	0.990101084903521	0.31155144274933616	0.5365219529722477	1.4412787182769145	0.3139664132675981	0.6334129441455831	1.85797520610309	0.28453137914981863	0.4514445346942777	1.8971667766959655	0.35119827571160744	0.5133402291002074	1.9143227031890586	0.28106228051061877	0.7141633838647284	1.942017771620799	0.09188516570065051	0.49633948414297996	0.9948091159818342	0.09491935788894951	0.5306719378306697	1.4507861748627247	0.10049978395616789	0.6024705158105137	1.8648682929238607	0.1281415484582785	0.4648323342312783	1.9204929373093191	0.062308814086524056	0.48584477545225835	1.8983164084713593	0.1187808013958241	0.6699528782282566	1.9267373241957806	0.1831456916612174	0.4686309988315565	0.4846708838782924	0.19760356079997238	0.4257188010304761	0.24928233903459612	0.21035080932770883	0.35361694236567304	0.36996335145813103	0.3118063386401774	0.4769039138758694	0.5242479783478302	0.49406132384994295	0.29456204678514986	0.5986219108965851	0.3976629280183544	0.26782543235181633	0.4294558908247083	0.313027161693721	0.28608258154741334	0.3509896211513286	0.331149740225939	0.19721501454452925	0.3260738643692169	0.41273991520387165	0.17008845117964166	0.32272273528390055	0.06673232687462605	0.4536851706061299	0.5272917605628904	-0.10041815969422682	0.29740268652730595	0.6075340336963412	-0.0011748867276010603	0.2553730367947232	0.4144057507034803	0.06299973691874372	0.2700004552977034	0.34202907206489735	0.03935491320151309	0.2701454637757771	0.3213781010807691	-0.017563182354531474	0.2294887867220002	0.328583721853728
190	3.1666666666666665	0.3005080879388949	0.49983594567901624	0.9902101978796944	0.3114392373546991	0.5362820236632407	1.4405927664933984	0.31360127500844487	0.6338558015284969	1.859679757873454	0.2842900914219663	0.45108933826510383	1.9000239437705329	0.3512457061062612	0.5133040148639374	1.9144114761218103	0.28078491619548795	0.7145883680955384	1.943517001051398	0.09186149227667255	0.49641948844864275	0.9939226045562519	0.0950451380667743	0.5302844960533017	1.4492170519252836	0.09942564998561787	0.6016866257514406	1.86461152266346	0.1282449500796627	0.46493295503785687	1.9205687627494998	0.06296971641982839	0.4893499270423372	1.9001737928651898	0.11817934574719884	0.670689215996873	1.926849494158933	0.18311203029896778	0.4681876412771697	0.48484386020287007	0.19568738864331137	0.4315419238773953	0.24834464993016886	0.21023468681297736	0.3539868908418959	0.369812781147695	0.3114327794766258	0.4788518866432879	0.5252603148530426	0.4918399209662325	0.2960258617989687	0.6077269688723471	0.3959479055445281	0.2682302498057357	0.4376674603086398	0.30719995381801746	0.2809679865185424	0.3601810745570369	0.3292386393074129	0.19624187440747648	0.32716112961859173	0.40754160512145243	0.17555651994450275	0.32686710001989905	0.06665795267153034	0.45419855362449907	0.5272852774990772	-0.09754190566583266	0.2968817820024765	0.6073349200851852	0.0015319583239951492	0.25830188753115485	0.4151937223616479	0.07332994684950435	0.25066585980748557	0.34566072004411497	0.05101899218909916	0.25545046749560063	0.326591766882315	-0.008921985375827158	0.23106849355476394	0.3312095608875507
191	3.183333333333333	0.3016594053221322	0.500433015777145	0.9903505661271416	0.3114004042666988	0.5363079643537693	1.4407467816132131	0.3133356565266629	0.6342187698021674	1.8610059442109599	0.28413061175835136	0.4507479245050381	1.9021843556884046	0.35130300500685324	0.5131827934557407	1.914424901023915	0.2806991425451303	0.7148116616633076	1.9441561512326073	0.09180943637285909	0.4966541328484152	0.9927466274934371	0.09534276927172187	0.5293395630715618	1.4474042429311773	0.09894917225776301	0.6013236277452343	1.8645150183190426	0.1285062044369386	0.4649512221202012	1.9206827133422777	0.06322706177380392	0.4906805349580232	1.9009222825937704	0.1181614946010334	0.6728378054217706	1.9268514554137774	0.18294224069227621	0.46725513789498163	0.4826311398368298	0.19447051477663296	0.4355468691846599	0.24742831385661776	0.20981469197356306	0.356934835554787	0.3692776935317657	0.3114326864058397	0.47943996391521126	0.525730744363834	0.49061301791010004	0.2977768414254393	0.6193286599780309	0.39573922233092107	0.26876418205800595	0.44895561335306533	0.30416141651504913	0.2786009761801581	0.3703447221463636	0.32571465521867404	0.20638009681926703	0.3286207181513281	0.3987747062066705	0.18692848643788365	0.3349082338550749	0.06635794903338568	0.4545234972733534	0.5272711333472397	-0.09538283191332196	0.29741368512458893	0.608054788295276	0.004325123398064082	0.2665309539244945	0.417355556112021	0.0773787100685014	0.24186639991435	0.34973780381709113	0.05856010854934048	0.2484298119239838	0.3318608112035989	-0.0021508543263190454	0.23412152881172077	0.33514340096492756
192	3.2	0.303165615447596	0.501220177838745	0.9904847404873414	0.31141279897829666	0.5365915860153573	1.4419833613137143	0.31324469543722244	0.6343977351422907	1.8615680238385945	0.284085399474437	0.45054184024508365	1.90305329857333	0.35135403490965833	0.5130240182764547	1.9144080249787618	0.28071971827625125	0.7148863637447297	1.9442127765983674	0.09174754345735561	0.4969822446476714	0.9918352671372923	0.0956335722822237	0.5281397343711194	1.4460070773737355	0.09884131027527696	0.601229222917491	1.8644842038667129	0.1290060893336897	0.46485813996010383	1.9207886570156885	0.06322128468864555	0.4906135513876112	1.9009362473660043	0.11784816992596106	0.6748252396629933	1.9272126776826113	0.18262542385083033	0.46620991100420095	0.4790046981730142	0.19397071331284577	0.437474799839331	0.24680188177269116	0.20928503530321352	0.3631362182798644	0.3680015204244325	0.31155708230274626	0.4796649355202399	0.5261837332543724	0.490195625988362	0.2993416250671264	0.6307482188624236	0.39593605755693506	0.2695144930562938	0.4615452893850739	0.30318482403328173	0.2781143488941091	0.38050523606608205	0.32010062936521877	0.22622949061527417	0.33083575126406745	0.38950413312051213	0.20419341528284535	0.347915949011724	0.06548234994277326	0.45473603558927483	0.5273681123867833	-0.09397983084612316	0.29807112062494634	0.6107093044365655	0.007555130604432003	0.2794080954952855	0.42142031048230166	0.07699801846343021	0.2426933993554705	0.35486331832482615	0.06297843113865528	0.25054175139818735	0.33611813239036725	0.0031513234707654953	0.23563882473085931	0.3394672250104681
